<?xml version="1.0" standalone="no"?>
<!DOCTYPE svg PUBLIC "-//W3C//DTD SVG 20010904//EN"
 "http://www.w3.org/TR/2001/REC-SVG-20010904/DTD/svg10.dtd">
<svg version="1.0" xmlns="http://www.w3.org/2000/svg"
 width="330.000000pt" height="150.000000pt" viewBox="0 0 330.000000 150.000000"
 preserveAspectRatio="xMidYMid meet">

<g transform="translate(0.000000,150.000000) scale(0.100000,-0.100000)"
fill="#000000" stroke="none">
<path d="M721 1194 c-23 -26 -41 -54 -40 -63 0 -9 17 -115 39 -236 l38 -220 1
237 1 237 53 10 c28 6 129 24 222 41 94 17 175 32 180 35 6 2 -94 4 -222 4
l-231 1 -41 -46z"/>
<path d="M1100 905 c0 -20 5 -25 25 -25 23 0 24 -3 27 -72 3 -67 5 -73 26 -76
21 -3 22 0 22 72 0 74 1 76 25 76 20 0 25 5 25 25 0 24 -2 25 -75 25 -73 0
-75 -1 -75 -25z"/>
<path d="M1307 923 c-4 -3 -7 -48 -7 -100 l0 -93 71 0 c67 0 70 1 67 23 -2 18
-10 23 -45 25 -55 4 -61 32 -8 32 28 0 35 4 35 20 0 16 -7 20 -35 20 -24 0
-35 5 -35 15 0 11 11 15 40 15 36 0 40 3 40 25 0 24 -3 25 -58 25 -32 0 -62
-3 -65 -7z"/>
<path d="M1490 830 c0 -99 0 -101 23 -98 18 2 23 10 25 41 4 48 17 47 42 -3
16 -30 26 -40 45 -40 14 0 25 2 25 5 0 2 -13 26 -29 54 l-29 49 24 35 c29 44
30 57 4 57 -12 0 -30 -16 -47 -42 l-28 -42 -5 40 c-4 31 -10 40 -27 42 -23 3
-23 1 -23 -98z"/>
<path d="M1697 924 c-4 -4 -7 -49 -7 -101 l0 -93 26 0 c27 0 27 0 21 63 l-6
62 22 -42 c11 -24 28 -43 37 -43 9 0 25 19 37 43 l21 42 -5 -62 c-6 -63 -6
-63 21 -63 l27 0 -3 98 c-3 89 -5 97 -23 97 -14 0 -28 -15 -45 -47 -14 -27
-27 -48 -30 -48 -3 0 -16 21 -30 47 -24 45 -47 63 -63 47z"/>
<path d="M1950 830 c0 -93 1 -100 20 -100 19 0 20 7 20 100 0 93 -1 100 -20
100 -19 0 -20 -7 -20 -100z"/>
<path d="M2057 924 c-4 -4 -7 -49 -7 -101 l0 -93 66 0 c62 0 65 1 62 23 -2 18
-10 23 -40 25 l-37 3 -3 72 c-2 55 -7 72 -18 75 -9 1 -19 0 -23 -4z"/>
<path d="M2506 650 l-39 -230 -226 -2 -226 -3 230 -41 230 -42 37 42 37 41 1
233 c0 127 -1 232 -3 232 -1 0 -20 -103 -41 -230z"/>
</g>
</svg>
